<svg width="172" height="42" viewBox="0 0 172 42" fill="none" xmlns="http://www.w3.org/2000/svg">
<path fill-rule="evenodd" clip-rule="evenodd" d="M22.1266 26.4597C25.7908 26.4597 29.2243 28.2492 31.3226 31.2532C31.3757 31.3286 31.4275 31.402 31.478 31.4748C31.7121 31.8099 31.7692 32.2387 31.6308 32.6237C31.4925 33.0092 31.1757 33.303 30.7816 33.4125C30.781 33.4132 30.7803 33.4132 30.7797 33.4132C23.7272 35.3738 16.2728 35.3738 9.22033 33.4132C9.21968 33.4132 9.21902 33.4132 9.21837 33.4125C8.82427 33.303 8.50755 33.0092 8.36919 32.6237C8.23083 32.2387 8.28788 31.8099 8.52197 31.4748C8.57247 31.402 8.62427 31.3286 8.67738 31.2532C10.7757 28.2492 14.2092 26.4597 17.8734 26.4597C19.2603 26.4597 20.7397 26.4597 22.1266 26.4597Z" fill="#00B37E" fill-opacity="0.5"/>
<path fill-rule="evenodd" clip-rule="evenodd" d="M17.4052 20.5291C14.3403 23.9081 9.2282 24.4498 5.52328 21.7888C4.66689 21.1731 3.78755 20.5416 2.92787 19.9245C1.44591 18.8603 0.601317 17.12 0.681317 15.2977C0.761317 13.4754 1.75542 11.8157 3.3246 10.8859C6.09312 9.24389 9.27738 7.35667 12.1161 5.67405C16.9731 2.79405 23.0177 2.80913 27.861 5.71208C30.6813 7.40323 33.8393 9.29635 36.5771 10.9377C38.1207 11.8629 39.0984 13.5009 39.1803 15.299C39.2616 17.097 38.4367 18.8163 36.9836 19.878C36.1351 20.4977 35.2669 21.1324 34.4203 21.7508C30.7548 24.4281 25.6603 23.9088 22.6105 20.5468C22.6046 20.5409 22.5993 20.5344 22.5934 20.5285C21.9298 19.7967 20.9882 19.3796 20 19.3796C19.0118 19.3796 18.0702 19.7967 17.4066 20.5285C17.4059 20.5285 17.4059 20.5291 17.4052 20.5291Z" fill="#00B37E" fill-opacity="0.5"/>
<path fill-rule="evenodd" clip-rule="evenodd" d="M14.9833 22.1684C15.8282 20.1689 17.7855 18.8664 19.9565 18.8598C22.1272 18.8532 24.0924 20.1437 24.9495 22.1382C25.6545 23.7793 26.3232 25.3363 26.8688 26.6061C27.0634 27.0598 26.949 27.587 26.5831 27.9188C26.2176 28.2502 25.6815 28.3132 25.249 28.0752C25.0286 27.9538 24.8033 27.8298 24.576 27.7048C21.6868 26.1146 18.1817 26.1272 15.304 27.7378C15.1153 27.8435 14.9282 27.9484 14.7441 28.0512C14.3133 28.2925 13.7766 28.2332 13.4087 27.9038C13.0406 27.5744 12.9225 27.0475 13.1148 26.5926C13.6466 25.3333 14.2975 23.7928 14.9833 22.1684Z" fill="#00B37E"/>
<path d="M63.1992 29.5H59.239L59.264 26.5767H63.1992C64.182 26.5767 65.0107 26.356 65.6853 25.9146C66.3599 25.4648 66.8679 24.811 67.2094 23.9532C67.5592 23.0953 67.7341 22.0584 67.7341 20.8425V19.9555C67.7341 19.0227 67.6342 18.2023 67.4343 17.4944C67.2427 16.7865 66.9554 16.191 66.5723 15.7079C66.1891 15.2249 65.7186 14.8626 65.1606 14.621C64.6026 14.3712 63.9613 14.2462 63.2367 14.2462H59.164V11.3104H63.2367C64.4526 11.3104 65.5645 11.5186 66.5723 11.9351C67.5883 12.3432 68.467 12.9303 69.2082 13.6966C69.9495 14.4628 70.52 15.3789 70.9198 16.445C71.3279 17.5027 71.5319 18.6812 71.5319 19.9805V20.8425C71.5319 22.1334 71.3279 23.3119 70.9198 24.3779C70.52 25.444 69.9495 26.3601 69.2082 27.1264C68.4753 27.8843 67.5967 28.4714 66.5723 28.8879C65.5562 29.296 64.4318 29.5 63.1992 29.5ZM61.3627 11.3104V29.5H57.6149V11.3104H61.3627ZM81.5387 11.3104V29.5H77.8033V11.3104H81.5387ZM87.1355 11.3104V14.2462H72.294V11.3104H87.1355ZM96.68 11.3104H99.8532L104.525 24.6653L109.198 11.3104H112.371L105.8 29.5H103.251L96.68 11.3104ZM94.9685 11.3104H98.1292L98.7038 24.328V29.5H94.9685V11.3104ZM110.922 11.3104H114.095V29.5H110.347V24.328L110.922 11.3104ZM116.581 22.8788V22.6164C116.581 21.6253 116.723 20.7134 117.006 19.8805C117.289 19.0393 117.701 18.3106 118.243 17.6943C118.784 17.078 119.45 16.5991 120.241 16.2576C121.033 15.9078 121.941 15.7329 122.965 15.7329C123.989 15.7329 124.901 15.9078 125.701 16.2576C126.5 16.5991 127.171 17.078 127.712 17.6943C128.262 18.3106 128.678 19.0393 128.961 19.8805C129.245 20.7134 129.386 21.6253 129.386 22.6164V22.8788C129.386 23.8616 129.245 24.7735 128.961 25.6147C128.678 26.4476 128.262 27.1763 127.712 27.801C127.171 28.4173 126.505 28.8962 125.713 29.2377C124.922 29.5791 124.014 29.7499 122.99 29.7499C121.965 29.7499 121.054 29.5791 120.254 29.2377C119.463 28.8962 118.792 28.4173 118.243 27.801C117.701 27.1763 117.289 26.4476 117.006 25.6147C116.723 24.7735 116.581 23.8616 116.581 22.8788ZM120.179 22.6164V22.8788C120.179 23.4451 120.229 23.974 120.329 24.4654C120.429 24.9568 120.587 25.3899 120.804 25.7646C121.029 26.1311 121.32 26.4184 121.678 26.6266C122.036 26.8349 122.474 26.939 122.99 26.939C123.49 26.939 123.919 26.8349 124.277 26.6266C124.635 26.4184 124.922 26.1311 125.139 25.7646C125.355 25.3899 125.513 24.9568 125.613 24.4654C125.722 23.974 125.776 23.4451 125.776 22.8788V22.6164C125.776 22.0668 125.722 21.5504 125.613 21.0673C125.513 20.576 125.351 20.1429 125.126 19.7681C124.91 19.385 124.622 19.0851 124.264 18.8686C123.906 18.6521 123.473 18.5438 122.965 18.5438C122.457 18.5438 122.024 18.6521 121.666 18.8686C121.316 19.0851 121.029 19.385 120.804 19.7681C120.587 20.1429 120.429 20.576 120.329 21.0673C120.229 21.5504 120.179 22.0668 120.179 22.6164ZM135.12 18.8686V29.5H131.523V15.9828H134.896L135.12 18.8686ZM134.596 22.2666H133.621C133.621 21.2672 133.75 20.3677 134.009 19.5682C134.267 18.7603 134.629 18.0732 135.095 17.5069C135.562 16.9322 136.116 16.495 136.757 16.1951C137.407 15.887 138.131 15.7329 138.931 15.7329C139.564 15.7329 140.143 15.8245 140.667 16.0077C141.192 16.191 141.642 16.4825 142.016 16.8822C142.4 17.282 142.691 17.8109 142.891 18.4688C143.099 19.1268 143.203 19.9305 143.203 20.8799V29.5H139.58V20.8675C139.58 20.2678 139.497 19.8014 139.331 19.4683C139.164 19.1351 138.918 18.9019 138.593 18.7687C138.277 18.6271 137.886 18.5563 137.419 18.5563C136.936 18.5563 136.515 18.6521 136.157 18.8436C135.808 19.0352 135.516 19.3017 135.283 19.6432C135.058 19.9763 134.887 20.3677 134.771 20.8175C134.654 21.2672 134.596 21.7503 134.596 22.2666ZM152.161 29.7499C151.111 29.7499 150.17 29.5833 149.337 29.2501C148.504 28.9087 147.797 28.4381 147.214 27.8385C146.639 27.2388 146.197 26.5434 145.889 25.7521C145.581 24.9526 145.427 24.1031 145.427 23.2036V22.7039C145.427 21.6795 145.573 20.7425 145.864 19.893C146.156 19.0435 146.572 18.3064 147.114 17.6818C147.663 17.0571 148.33 16.5782 149.112 16.2451C149.895 15.9036 150.778 15.7329 151.761 15.7329C152.719 15.7329 153.568 15.8911 154.309 16.2076C155.051 16.5241 155.671 16.9739 156.171 17.5569C156.679 18.1398 157.062 18.8394 157.32 19.6556C157.578 20.4635 157.707 21.363 157.707 22.3541V23.8532H146.964V21.4546H154.172V21.1798C154.172 20.6801 154.08 20.2345 153.897 19.843C153.722 19.4433 153.456 19.1268 153.098 18.8936C152.74 18.6604 152.281 18.5438 151.723 18.5438C151.249 18.5438 150.841 18.6479 150.499 18.8561C150.158 19.0643 149.879 19.3558 149.662 19.7306C149.454 20.1054 149.296 20.5468 149.187 21.0548C149.087 21.5546 149.037 22.1042 149.037 22.7039V23.2036C149.037 23.745 149.112 24.2447 149.262 24.7028C149.421 25.1608 149.641 25.5564 149.924 25.8896C150.216 26.2227 150.566 26.4809 150.974 26.6641C151.39 26.8474 151.861 26.939 152.386 26.939C153.035 26.939 153.639 26.814 154.197 26.5642C154.763 26.306 155.251 25.9187 155.659 25.4024L157.408 27.3013C157.124 27.7094 156.737 28.1008 156.246 28.4756C155.763 28.8504 155.18 29.1585 154.497 29.4001C153.814 29.6333 153.035 29.7499 152.161 29.7499ZM163.592 27.9759L167.177 15.9828H171.037L165.603 31.5363C165.486 31.8778 165.328 32.2443 165.128 32.6357C164.937 33.0271 164.674 33.3978 164.341 33.7476C164.016 34.1057 163.604 34.3972 163.104 34.6221C162.613 34.8469 162.009 34.9594 161.293 34.9594C160.951 34.9594 160.672 34.9385 160.456 34.8969C160.239 34.8553 159.981 34.797 159.681 34.722V32.086C159.773 32.086 159.869 32.086 159.969 32.086C160.069 32.0943 160.164 32.0985 160.256 32.0985C160.731 32.0985 161.118 32.0444 161.418 31.9361C161.718 31.8278 161.959 31.6613 162.142 31.4364C162.326 31.2198 162.471 30.9367 162.58 30.5869L163.592 27.9759ZM162.092 15.9828L165.028 25.7771L165.541 29.5874L163.092 29.8498L158.232 15.9828H162.092Z" fill="#E1E1E6"/>
</svg>
